<!DOCTYPE svg PUBLIC "-//W3C//DTD SVG 1.1//EN" "http://www.w3.org/Graphics/SVG/1.1/DTD/svg11.dtd">
<!-- Uploaded to: SVG Repo, www.svgrepo.com, Transformed by: SVG Repo Mixer Tools -->
<svg version="1.1" id="Uploaded to svgrepo.com" xmlns="http://www.w3.org/2000/svg" xmlns:xlink="http://www.w3.org/1999/xlink" width="800px" height="800px" viewBox="0 0 32 32" xml:space="preserve" fill="#000000">
<g id="SVGRepo_bgCarrier" stroke-width="0"/>
<g id="SVGRepo_tracerCarrier" stroke-linecap="round" stroke-linejoin="round"/>
<g id="SVGRepo_iconCarrier"> <style type="text/css"> .stone_een{fill:#0B1719;} .st0{fill:#0B1719;} </style> <path class="stone_een" d="M15,5L15,5c0-0.552-0.448-1-1-1h-1.051C12.982,4.162,13,4.329,13,4.5v2C13,7.878,11.879,9,10.5,9 c-0.107,0-0.215-0.007-0.325-0.021C8.935,8.82,8,7.732,8,6.448V6.303c0-0.764,0.549-1.446,1.307-1.541 C9.552,4.731,9.787,4.76,10,4.836V4.5C10,4.224,10.224,4,10.5,4S11,4.224,11,4.5v1.972c0,0.25-0.171,0.482-0.418,0.522 C10.554,6.998,10.527,7,10.5,7C10.224,7,10,6.775,10,6.5V6.25c0-0.304-0.271-0.544-0.584-0.493C9.17,5.797,9,6.028,9,6.277v0.162 c0,0.778,0.566,1.472,1.34,1.553C10.394,7.997,10.447,8,10.5,8C11.327,8,12,7.327,12,6.5v-2C12,3.672,11.328,3,10.5,3 C9.848,3,9.298,3.419,9.092,4H8.051H6C5.448,4,5,4.448,5,5v10c0,0.552,0.448,1,1,1h8c0.552,0,1-0.448,1-1L15,5L15,5z M11.5,13h-3 C8.224,13,8,12.776,8,12.5C8,12.224,8.224,12,8.5,12h3c0.276,0,0.5,0.224,0.5,0.5C12,12.776,11.776,13,11.5,13z M11.5,11h-3 C8.224,11,8,10.776,8,10.5C8,10.224,8.224,10,8.5,10h3c0.276,0,0.5,0.224,0.5,0.5C12,10.776,11.776,11,11.5,11z M30,25.618V26 c0,1.657-1.343,3-3,3H5c-1.657,0-3-1.343-3-3v-0.382C2.734,26.458,3.8,27,5,27h22C28.2,27,29.266,26.458,30,25.618z M5,26h22 c1.657,0,3-1.343,3-3V8c0-1.657-1.343-3-3-3H16v10c0,1.103-0.897,2-2,2H6c-1.103,0-2-0.897-2-2V5.184C2.837,5.597,2,6.696,2,8v15 C2,24.657,3.343,26,5,26z M5.5,22h2.793l2.854-2.854C11.24,19.053,11.367,19,11.5,19h3.793l2.854-2.854 c0.195-0.195,0.512-0.195,0.707,0L20.707,18h1.586l3-3H22.5c-0.276,0-0.5-0.224-0.5-0.5s0.224-0.5,0.5-0.5h4 c0.065,0,0.13,0.013,0.191,0.038c0.122,0.051,0.22,0.148,0.271,0.271C26.987,14.37,27,14.435,27,14.5v4c0,0.276-0.224,0.5-0.5,0.5 S26,18.776,26,18.5v-2.793l-3.146,3.146C22.76,18.947,22.633,19,22.5,19h-2c-0.133,0-0.26-0.053-0.354-0.146L18.5,17.207 l-2.646,2.646C15.76,19.947,15.633,20,15.5,20h-3.793l-2.854,2.854C8.76,22.947,8.633,23,8.5,23h-3C5.224,23,5,22.776,5,22.5 S5.224,22,5.5,22z"/> </g>
</svg>